# AST/ASF file generated using VICON BodyLanguage
# -----------------------------------------------
:version 1.10
:name VICON
:units
  mass 1.0
  length 0.45
  angle deg
:documentation
   .ast/.asf automatically generated from VICON data using
   VICON BodyBuilder and BodyLanguage model FoxedUp or BRILLIANT.MOD
:root
   order TX TY TZ RX RY RZ
   axis XYZ
   position 0 0 0  
   orientation 0 0 0 
:bonedata
  begin
     id 1 
     name lhipjoint
     direction 0.57768 -0.667037 0.470475 
     length 2.36008 
     axis 0 0 0  XYZ
  end
  begin
     id 2 
     name lfemur
     direction 0.34202 -0.939693 0  
     length 6.97235  
     axis 0 0 20  XYZ
    dof rx ry rz
    limits (-160.0 20.0)
           (-70.0 70.0)
           (-60.0 70.0)
  end
  begin
     id 3 
     name ltibia
     direction 0.34202 -0.939693 0   
     length 6.93428   
     axis 0 0 20   XYZ
    dof rx
    limits (-10.0 170.0)
  end
  begin
     id 4 
     name lfoot
     direction 0.133018 -0.365463 0.921272   
     length 2.18603   
     axis -90 7.62852e-016 20   XYZ
    dof rx rz
    limits (-45.0 90.0)
           (-70.0 20.0)
  end
  begin
     id 5 
     name ltoes
     direction 1.53519e-011 -4.22055e-011 1   
     length 1.07924   
     axis -90 7.62852e-016 20   XYZ
    dof rx
    limits (-90.0 20.0)
  end
  begin
     id 6 
     name rhipjoint
     direction -0.577712 -0.667019 0.470462   
     length 2.36015  
     axis 0 0 0  XYZ 
  end
  begin
     id 7 
     name rfemur
     direction -0.34202 -0.939693 0   
     length 6.71195   
     axis 0 0 -20   XYZ
    dof rx ry rz
    limits (-160.0 20.0)
           (-70.0 70.0)
           (-70.0 60.0)
  end
  begin
     id 8 
     name rtibia
     direction -0.34202 -0.939693 0   
     length 7.04592   
     axis 0 0 -20   XYZ
    dof rx
    limits (-10.0 170.0)
 end
 begin
     id 9 
     name rfoot
     direction -0.113796 -0.312651 0.943027   
     length 2.03846  
     axis -90 -7.62852e-016 -20   XYZ
    dof rx rz
    limits (-45.0 90.0)
           (-20.0 70.0)
  end
  begin
     id 10 
     name rtoes
     direction -1.53586e-011 -4.218e-011 1   
     length 1.01562   
     axis -90 -7.62852e-016 -20   XYZ
    dof rx
    limits (-90.0 20.0)
  end
  begin
     id 11 
     name lowerback
     direction -0.0417299 0.991937 -0.119667   
     length 2.05257   
     axis 0 0 0   XYZ
    dof rx ry rz
    limits (-20.0 45.0)
           (-30.0 30.0)
           (-30.0 30.0)
  end
  begin
     id 12 
     name upperback
     direction -0.00017666 0.999999 0.00105178   
     length 2.05693   
     axis 0 0 0   XYZ
    dof rx ry rz
    limits (-20.0 45.0)
           (-30.0 30.0)
           (-30.0 30.0)
  end
  begin
     id 13 
     name thorax
     direction 0.0185169 0.998203 0.0569866   
     length 2.0932   
     axis 0 0 0   XYZ
    dof rx ry rz
    limits (-20.0 45.0)
           (-30.0 30.0)
           (-30.0 30.0)
  end
  begin
     id 14 
     name lowerneck
     direction -0.0212406 0.982645 0.184277   
     length 1.72509   
     axis 0 0 0   XYZ
    dof rx ry rz
    limits (-20.0 45.0)
           (-30.0 30.0)
           (-30.0 30.0)
  end
  begin
     id 15 
     name upperneck
     direction 0.00528579 0.965323 -0.261004   
     length 1.76294   
     axis 0 0 0   XYZ
    dof rx ry rz
    limits (-20.0 45.0)
           (-30.0 30.0)
           (-30.0 30.0)
  end
  begin
     id 16
     name head
     direction 0.00695421 0.994078 -0.108445  
     length 1.78678  
     axis 0 0 0   XYZ
    dof rx ry rz
    limits (-20.0 45.0)
           (-30.0 30.0)
           (-30.0 30.0)
  end
  begin
     id 17 
     name lclavicle
     direction 0.97277 0.211305 -0.095232  
     length 3.84823  
     axis 0 0 0   XYZ
    dof ry rz
    limits (-20.0 10.0)
           (0.0 20.0)
  end
  begin
     id 18 
     name lhumerus
     direction 1 -4.48957e-011 -1.98313e-027   
     length 4.97185   
     axis 180 -30 -90   XYZ
    dof rx ry rz
    limits (-60.0 90.0)
           (-90.0 90.0)
           (-90.0 90.0)
  end
  begin
     id 19
     name lradius
     direction 1 -4.4898e-011 7.31063e-027   
     length 3.35811   
     axis 180 -30 -90   XYZ
    dof rx
    limits (-10.0 170.0)
  end
  begin
     id 20
     name lwrist
     direction 1 -4.48938e-011 9.95048e-027   
     length 1.67905   
     axis -8.75986e-015 90 90   XYZ
    dof ry
    limits (-180.0 0.0)
 end
  begin
     id 21 
     name lhand
     direction 1 -4.4901e-011 1.9901e-026   
     length 0.622776   
     axis -1.26985e-014 90 90   XYZ
    dof rx rz
    limits (-90.0 90.0)
           (-45.0 45.0)
  end
  begin
     id 22 
     name lfingers
     direction 1 -4.48961e-011 3.98019e-026   
     length 0.502098   
     axis -2.5397e-014 90 90   XYZ
    dof rx
    limits (0.0 90.0)
  end
  begin
     id 23
     name lthumb
     direction 0.707107 -6.34933e-011 0.707107   
     length 0.720915   
     axis -90 45 2.85299e-015   XYZ
    dof rx rz
    limits (-45.0 45.0)
           (-45.0 45.0)
  end
  begin
     id 24 
     name rclavicle
     direction -0.990867 0.133739 -0.0172226   
     length 3.78845  
     axis 0 0 0   XYZ 
    dof ry rz
    limits (-10.0 20.0)
           (-20.0 0.0)
  end
  begin
     id 25 
     name rhumerus
     direction -1 -4.48972e-011 -1.99267e-027  
     length 4.96493   
     axis 180 30 90   XYZ
    dof rx ry rz
    limits (-90.0 60.0)
           (-90.0 90.0)
           (-90.0 90.0)
  end
  begin
     id 26 
     name rradius
     direction -1 -4.48969e-011 8.96093e-027   
     length 3.34929   
     axis 180 30 90   XYZ
    dof rx
    limits (-10.0 170.0)
  end
  begin
     id 27 
     name rwrist
     direction -1 -4.48953e-011 9.95048e-027   
     length 1.67464   
     axis -8.75986e-015 -90 -90   XYZ
    dof ry
    limits (-180.0 0.0)
  end
  begin
     id 28
     name rhand
     direction -1 -4.49001e-011 1.9901e-026   
     length 0.638041   
     axis -1.26985e-014 -90 -90   XYZ
    dof rx rz
    limits (-90.0 90.0)
           (-45.0 45.0)
  end
  begin
     id 29
     name rfingers
     direction -1 -4.48967e-011 3.98019e-026   
     length 0.514405   
     axis -2.5397e-014 -90 -90   XYZ
    dof rx
    limits (0.0 90.0)
  end
  begin
     id 30
     name rthumb
     direction -0.707107 -6.34904e-011 0.707107   
     length 0.738586   
     axis -90 -45 -2.85299e-015   XYZ
    dof rx rz
    limits (-45.0 45.0)
           (-45.0 45.0)
  end
:hierarchy
  begin
    root lhipjoint rhipjoint lowerback
    lhipjoint lfemur
    lfemur ltibia
    ltibia lfoot
    lfoot ltoes
    rhipjoint rfemur
    rfemur rtibia
    rtibia rfoot
    rfoot rtoes
    lowerback upperback
    upperback thorax
    thorax lowerneck lclavicle rclavicle
    lowerneck upperneck
    upperneck head
    lclavicle lhumerus
    lhumerus lradius
    lradius lwrist
    lwrist lhand lthumb
    lhand lfingers
    rclavicle rhumerus
    rhumerus rradius
    rradius rwrist
    rwrist rhand rthumb
    rhand rfingers
  end

#!OML:ASF E:\Mandelcareful walks\Project 1\Capture day 1\Session 1\Subject1.ASF
:FULLY-SPECIFIED
:DEGREES
82
root -23.142 16.8161 -0.245146 -158.115 86.6174 176.033
lowerback -22.0613 2.15948 -5.04408
upperback -1.51078 4.38802 -1.10986
thorax 10.3988 1.93412 2.98741
lowerneck -3.70413 18.2526 16.8724
upperneck 19.9041 27.311 -12.6241
head 11.1154 13.1522 -3.18268
rclavicle -1.02871e-014 -1.21259e-014
rhumerus -38.3791 -14.6135 -76.4249
rradius 29.7371
rwrist -1.95559
rhand -4.25431 -32.321
rfingers 7.12502
rthumb 21.5097 -61.1467
lclavicle -1.02871e-014 -1.21259e-014
lhumerus -22.7905 3.76211 81.5953
lradius 23.691
lwrist 3.75749
lhand -26.5076 -12.9486
lfingers 7.12502
lthumb 0.0555228 17.0312
rfemur -26.9432 -4.78949 8.63308
rtibia 17.9291
rfoot -11.9639 -26.1017
rtoes -0.692746
lfemur -30.1984 0.716626 -18.5578
ltibia 23.7705
lfoot -22.9427 24.081
ltoes 4.28852
83
root -23.1376 16.8136 -0.165381 -171.175 86.9825 162.24
lowerback -22.9781 1.9975 -5.59478
upperback -1.72645 4.41631 -1.34746
thorax 10.6348 1.92999 3.09267
lowerneck -3.22671 18.1823 17.3263
upperneck 19.4192 27.276 -13.1345
head 10.9982 13.1639 -3.45939
rclavicle -1.65985e-014 3.77691e-015
rhumerus -38.5275 -14.0907 -77.0238
rradius 30.5026
rwrist -3.17494
rhand -4.45442 -31.9298
rfingers 7.12502
rthumb 21.3175 -60.7773
lclavicle -1.65985e-014 3.77691e-015
lhumerus -23.5549 4.02539 81.4586
lradius 23.6593
lwrist 3.42574
lhand -26.3873 -12.4571
lfingers 7.12502
lthumb 0.171641 17.5226
rfemur -27.1215 -3.56367 7.82937
rtibia 16.7366
rfoot -13.9522 -27.9302
rtoes 0.648733
lfemur -30.7645 0.611272 -19.0468
ltibia 23.3997
lfoot -22.7711 24.3748
ltoes 4.00114
84
root -23.1404 16.8046 -0.0793819 -184.558 87.2227 148.432
lowerback -23.4901 1.86024 -5.95578
upperback -1.5446 4.39087 -1.47032
thorax 11.108 1.87813 3.18795
lowerneck -4.19839 18.4311 16.9449
upperneck 19.3815 27.4751 -13.1434
head 11.1373 13.1612 -3.27808
rclavicle -8.74156e-014 -8.34896e-015
rhumerus -37.7863 -13.3327 -77.8528
rradius 31.2876
rwrist -4.56326
rhand -4.7492 -31.9383
rfingers 7.12502
rthumb 21.0344 -60.8176
lclavicle -8.74156e-014 -8.34896e-015
lhumerus -23.199 5.26327 81.3739
lradius 22.8646
lwrist 2.31256
lhand -26.1849 -12.2749
lfingers 7.12502
lthumb 0.36714 17.7046
rfemur -27.1982 -2.53531 7.30931
rtibia 15.6643
rfoot -16.2249 -29.6254
rtoes 4.05565
lfemur -31.0392 0.615441 -19.3801
ltibia 23.0571
lfoot -22.749 24.5667
ltoes 4.35646
85
root -23.1443 16.7983 0.0068731 -200.361 87.4461 132.439
lowerback -23.7781 1.80574 -6.18652
upperback -1.5588 4.41762 -1.55618
thorax 11.2376 1.87728 3.24734
lowerneck -4.33286 18.4751 16.72
upperneck 19.4605 27.5072 -12.9913
head 11.1361 13.1643 -3.184
rclavicle 3.47376e-014 1.11319e-014
rhumerus -37.6676 -12.3127 -78.5772
rradius 32.269
rwrist -5.87919
rhand -4.64189 -31.9976
rfingers 7.12502
rthumb 21.1375 -60.8654
lclavicle 3.47376e-014 1.11319e-014
lhumerus -23.4307 6.49036 81.3059
lradius 22.0913
lwrist 1.04397
lhand -26.1098 -11.8904
lfingers 7.12502
lthumb 0.439658 18.0889
rfemur -27.2044 -1.30759 6.85592
rtibia 15.0001
rfoot -18.5697 -30.9419
rtoes 7.76963
lfemur -30.993 0.657543 -19.6273
ltibia 22.6547
lfoot -22.9293 24.8835
ltoes 5.36059
86
root -23.1526 16.794 0.087779 -222.143 87.5561 110.581
lowerback -23.9528 1.90717 -6.33953
upperback -1.51793 4.63371 -1.74867
thorax 11.3664 1.9694 3.19839
lowerneck -4.56823 18.4837 16.7436
upperneck 19.5665 27.4746 -12.9363
head 11.2075 13.1358 -3.14898
rclavicle 5.16592e-014 2.98177e-016
rhumerus -37.3585 -11.6548 -79.3104
rradius 33.1303
rwrist -6.9886
rhand -4.32808 -31.6309
rfingers 7.12502
rthumb 21.4389 -60.4647
lclavicle 5.16592e-014 2.98177e-016
lhumerus -23.4581 7.36667 81.289
lradius 21.2178
lwrist -0.0260288
lhand -25.9111 -11.4129
lfingers 7.12502
lthumb 0.631624 18.5659
rfemur -27.3031 0.465681 6.13188
rtibia 14.6792
rfoot -20.1223 -32.2273
rtoes 9.59229
lfemur -30.7769 0.508612 -19.8344
ltibia 22.2641
lfoot -23.3789 25.5391
ltoes 6.30241
